<svg id="Layer_1" data-name="Layer 1" xmlns="http://www.w3.org/2000/svg" xmlns:xlink="http://www.w3.org/1999/xlink" viewBox="0 0 16 16"><defs><style>.cls-1{fill:url(#linear-gradient);}</style><linearGradient id="linear-gradient" x1="8" y1="16" x2="8" gradientUnits="userSpaceOnUse"><stop offset="0" stop-color="#ff8633"/><stop offset="1" stop-color="#ff954d"/></linearGradient></defs><path class="cls-1" d="M14.4,1.51,11.37,0,8,1.69,4.63,0l-3,1.51-.69.35V8.91h0A6.93,6.93,0,0,0,1.6,12a7.09,7.09,0,0,0,12.8,0,6.93,6.93,0,0,0,.69-3.05v-7Zm-3-.73L14,2.07l-2.6,1.3L8.78,2.07ZM7.65,12.85,5,14.19V4H5L7.65,2.64Zm0,.77V15.3a6.47,6.47,0,0,1-2.25-.55Zm.7-11h0L11,4V14.54a6.29,6.29,0,0,1-2.68.76ZM4.63.78,7.22,2.07,4.63,3.37,2,2.07Zm-3,8.13V2.64L4.28,4V14.11A6.39,6.39,0,0,1,1.6,8.91Zm12.8,0h0a6.39,6.39,0,0,1-2.68,5.2V4h0L14.4,2.64Z"/></svg>