<?xml version="1.0" encoding="utf-8"?>
<!-- Generator: Adobe Illustrator 27.3.1, SVG Export Plug-In . SVG Version: 6.00 Build 0)  -->
<svg version="1.1" id="Layer_1" xmlns="http://www.w3.org/2000/svg" xmlns:xlink="http://www.w3.org/1999/xlink" x="0px" y="0px"
	 viewBox="0 0 87.5 88.6" style="enable-background:new 0 0 87.5 88.6;" xml:space="preserve">
<style type="text/css">
	.st0{fill:#888888;}
</style>
<g>
	<path class="st0" d="M81.3,38.9h-67V12.4c0-3.7,3-6.8,6.8-6.8s6.7,3,6.7,6.8v2.4h-3.3c-1.5,0-2.8,1.2-2.8,2.8s1.3,2.8,2.8,2.8h12.2
		c1.6,0,2.8-1.2,2.8-2.8s-1.2-2.8-2.8-2.8h-3.3v-2.4C33.5,5.6,27.9,0,21.1,0S8.8,5.6,8.8,12.4v26.5H6.2C2.8,38.9,0,41.6,0,45
		s2.8,6.2,6.2,6.2h75.2c3.4,0,6.2-2.8,6.2-6.2S84.7,38.9,81.3,38.9L81.3,38.9z"/>
	<path class="st0" d="M6.2,62c0,7.2,5.3,13.1,12.1,14.2l-3.2,8.6c-0.5,1.5,0.2,3.1,1.7,3.6c0.3,0.1,0.6,0.2,1,0.2
		c1.1,0,2.2-0.7,2.6-1.8l3.8-10.3h39L67,86.7c0.4,1.1,1.5,1.8,2.6,1.8c0.3,0,0.6-0.1,1-0.2c1.5-0.5,2.2-2.2,1.7-3.6l-3.2-8.6
		c6.9-1.1,12.1-7,12.1-14.2v-5.2h-75V62z"/>
</g>
</svg>
