<?xml version="1.0" encoding="utf-8"?>
<!-- Generator: Adobe Illustrator 27.3.1, SVG Export Plug-In . SVG Version: 6.00 Build 0)  -->
<svg version="1.1" id="Layer_1" xmlns="http://www.w3.org/2000/svg" xmlns:xlink="http://www.w3.org/1999/xlink" x="0px" y="0px"
	 viewBox="0 0 87.5 63.4" style="enable-background:new 0 0 87.5 63.4;" xml:space="preserve">
<style type="text/css">
	.st0{fill:#888888;}
</style>
<g>
	<path class="st0" d="M77.1,27.1H10.4C4.6,27.1,0,31.8,0,37.5v8.2c0,2.8,2.3,5.1,5.1,5.1h0.5v9.8c0,1.6,1.2,2.8,2.8,2.8
		c1.5,0,2.8-1.2,2.8-2.8v-9.8h65.1v9.8c0,1.6,1.3,2.8,2.8,2.8c1.6,0,2.8-1.2,2.8-2.8v-9.8h0.5c2.8,0,5.1-2.3,5.1-5.1v-8.2
		C87.5,31.8,82.9,27.1,77.1,27.1L77.1,27.1z"/>
	<path class="st0" d="M53.5,18.7c-0.9,0-1.6,0.7-1.6,1.6v1.2h12.8v-1.2c0-0.9-0.7-1.6-1.6-1.6H53.5z"/>
	<path class="st0" d="M24.4,18.7c-0.9,0-1.6,0.7-1.6,1.6v1.2h12.8v-1.2c0-0.9-0.7-1.6-1.6-1.6H24.4z"/>
	<path class="st0" d="M17.2,21.5v-1.2c0-4,3.2-7.2,7.2-7.2H34c4,0,7.2,3.2,7.2,7.2v1.2h5.1v-1.2c0-4,3.2-7.2,7.2-7.2h9.6
		c4,0,7.2,3.2,7.2,7.2v1.2h6.8c0.7,0,1.3,0.1,2,0.2V11.4C79.1,5.1,74,0,67.7,0H19.8C13.5,0,8.4,5.1,8.4,11.4v10.3
		c0.7-0.1,1.3-0.2,2-0.2H17.2z"/>
</g>
</svg>
