<svg height="24" width="24" xmlns="http://www.w3.org/2000/svg"><g transform="translate(0 -1028.4)"><path d="m10.286 1030.4-5.3466 18h5.3466 3.564 5.346l-5.346-18z" fill="#ecf0f1"/><path d="m4 19-2 2h20l-2-2z" fill="#f39c12" transform="translate(0 1028.4)"/><path d="m10.286 1030.4-.8913 3h5.3463l-.891-3zm-2.0886 7-1.1974 4h10.136l-1.198-4zm-2.3669 8-.8911 3h5.3466 3.564 5.346l-.891-3h-12.474z" fill="#e67e22"/><path d="m10.286 1030.4-5.3466 18h5.3466 1.782v-18z" fill="#bdc3c7"/><path d="m10.286 1030.4-.8913 3h2.6733v-3zm-2.0886 7-1.1974 4h5.068v-4zm-2.3669 8-.8911 3h5.3466 1.782v-3z" fill="#d35400"/><path d="m2 1049.4h20v1h-20z" fill="#e67e22"/></g></svg>