<?xml version="1.0" encoding="utf-8"?>
<!-- Generator: Adobe Illustrator 27.3.1, SVG Export Plug-In . SVG Version: 6.00 Build 0)  -->
<svg version="1.1" id="Layer_1" xmlns="http://www.w3.org/2000/svg" xmlns:xlink="http://www.w3.org/1999/xlink" x="0px" y="0px"
	 viewBox="0 0 61.1 71.4" style="enable-background:new 0 0 61.1 71.4;" xml:space="preserve">
<style type="text/css">
	.st0{fill:#1856EF;}
</style>
<path class="st0" d="M30.4,15c0.4,0,0.8,0.2,1.1,0.5l13,13c0.6,0.6,0.6,1.6,0,2.3c-0.3,0.3-0.7,0.5-1.1,0.5c-0.4,0-0.8-0.2-1.1-0.5
	l-13-13c-0.6-0.6-0.6-1.6,0-2.3C29.6,15.2,30,15,30.4,15z M38,0c-1.4,0-2.7,0.5-3.8,1.6L1,34.8c-0.3,0.3-0.5,0.7-0.5,1.1v21.9
	c0,0.4,0.2,0.8,0.5,1.1s0.7,0.4,1,0.5h21.9c0.4,0,0.7-0.1,1-0.3l33.4-33.4c2.1-2.1,2.1-5.5,0-7.6l0,0L41.8,1.6l0,0l0,0
	C40.8,0.5,39.4,0,38,0L38,0z M4,68.2c-0.9,0-1.6,0.7-1.6,1.6s0.7,1.6,1.6,1.6h41.1c0.9,0,1.6-0.7,1.6-1.6s-0.7-1.6-1.6-1.6H4z"/>
</svg>
