<svg id="Layer_1" data-name="Layer 1" xmlns="http://www.w3.org/2000/svg" viewBox="0 0 17 17"><defs><style>.cls-1{fill:#fff;}</style></defs><path class="cls-1" d="M11.81,10.57l-.59.43-.59-.43L9.52,9.76l-.38-.28A3.26,3.26,0,1,1,5.79,4l.55-.77.3-.41H9.12V1.17a5.61,5.61,0,0,0-2-.37A6.17,6.17,0,0,0,.9,7c0,5.43,6.17,10,6.17,10s4-3,5.56-7Z"/><polygon class="cls-1" points="16.1 4.88 15.29 5.98 12.32 5.98 12.32 8.94 11.22 9.76 10.12 8.94 10.12 5.98 7.16 5.98 6.34 4.88 7.16 3.78 10.12 3.78 10.12 0.81 11.22 0 12.32 0.81 12.32 3.78 15.29 3.78 16.1 4.88"/></svg>