<svg id="Layer_1" data-name="Layer 1" xmlns="http://www.w3.org/2000/svg" viewBox="0 0 17 17"><defs><style>.cls-1{fill:#ff8633;}.cls-2{fill:#fff;}</style></defs><path class="cls-1" d="M16.69,7V12a.77.77,0,0,1-.73.79H6.56A.82.82,0,0,0,6,13l-3.6,2.88a.13.13,0,0,1-.2-.15l.68-2.82a.09.09,0,0,0-.08-.11H1A.77.77,0,0,1,.31,12V10.83L5.09,7.31a.82.82,0,0,1,1,0L7.7,8.51l4.87-3.84a.81.81,0,0,1,1,0Z"/><path class="cls-2" d="M2.34,16.23a.39.39,0,0,1-.25-.08.45.45,0,0,1-.17-.51l.6-2.51H1A1.08,1.08,0,0,1,0,12V10.67L4.91,7.06a1.13,1.13,0,0,1,1.35,0l1.44,1,4.68-3.69a1.14,1.14,0,0,1,1.39,0L17,6.79V12a1.08,1.08,0,0,1-1,1.11H6.56a.59.59,0,0,0-.35.12L2.62,16.14A.47.47,0,0,1,2.34,16.23Zm.19-.43h0ZM.63,11v1A.46.46,0,0,0,1,12.5H3l.16.15A.41.41,0,0,1,3.2,13l-.56,2.32,3.18-2.55a1.19,1.19,0,0,1,.74-.26H16a.45.45,0,0,0,.41-.48V7.11l-3-2.21a.52.52,0,0,0-.63,0l-5.06,4L5.89,7.57a.5.5,0,0,0-.61,0Z"/><path class="cls-2" d="M0,11.45V1.88A1.08,1.08,0,0,1,1,.77H16a1.08,1.08,0,0,1,1,1.11v5.7L13.4,4.9a.52.52,0,0,0-.63,0l-5.06,4L5.89,7.57a.5.5,0,0,0-.61,0Zm1-10a.44.44,0,0,0-.41.48v8.33L4.91,7.06a1.13,1.13,0,0,1,1.35,0l1.44,1,4.68-3.69a1.14,1.14,0,0,1,1.39,0l2.6,1.93V1.88A.46.46,0,0,0,16,1.4Z"/><circle class="cls-1" cx="4.01" cy="3.85" r="0.97"/><path class="cls-2" d="M4,5.14A1.29,1.29,0,1,1,5.3,3.85,1.28,1.28,0,0,1,4,5.14ZM4,3.19a.66.66,0,1,0,.66.66A.66.66,0,0,0,4,3.19Z"/></svg>