<svg id="Layer_1" data-name="Layer 1" xmlns="http://www.w3.org/2000/svg" viewBox="0 0 17 17"><defs><style>.cls-1{fill:#fff;}.cls-2{fill:#ff8633;}</style></defs><path d="M14.2,6.61a.31.31,0,0,1-.31.32h-.81a.25.25,0,0,1-.25-.25V4.76l-.22.15a.32.32,0,0,1-.43-.09.31.31,0,0,1,.08-.43L12.88,4,13,3.91a.31.31,0,0,1,.13,0,.33.33,0,0,1,.33.33V6.3h.44A.31.31,0,0,1,14.2,6.61Z"/><path d="M13.49,3.09a.32.32,0,0,1-.32.32.33.33,0,0,1-.34-.32.34.34,0,0,1,.34-.33A.32.32,0,0,1,13.49,3.09Z"/><path class="cls-1" d="M13.21,1.17A3.72,3.72,0,0,0,10.5,2.35H1.35a1.29,1.29,0,0,0-1.3,1.3V14.53a1.3,1.3,0,0,0,1.3,1.3H12.23a1.32,1.32,0,0,0,1.31-1.3V8.62a3.73,3.73,0,0,0-.33-7.45ZM.67,3.65A.67.67,0,0,1,1.35,3H10a3.42,3.42,0,0,0-.55,1.87H.67ZM10,8.79l.83-.28V9.7H2.68V7.34H9.74l-.18,1A.37.37,0,0,0,10,8.79Zm2.88,5.74a.69.69,0,0,1-.69.68H1.35a.67.67,0,0,1-.68-.68V5.46H9.54a3.79,3.79,0,0,0,.33,1.12v.14H2.61a.53.53,0,0,0-.55.54V9.78a.54.54,0,0,0,.55.54H11a.54.54,0,0,0,.54-.54V8.3l.09,0a3.54,3.54,0,0,0,1.34.35ZM13.21,8a2.94,2.94,0,0,1-1.45-.36l0,0a.26.26,0,0,1-.09-.05l-.4.13-1,.33.2-1.15.09-.42s0-.07-.08-.1v0a3.31,3.31,0,0,1-.35-1.46A3.12,3.12,0,1,1,13.21,8Z"/><path class="cls-2" d="M1.35,3a.67.67,0,0,0-.68.68V4.84H9.49A3.42,3.42,0,0,1,10,3ZM2,4.22a.33.33,0,1,1,.33-.33A.33.33,0,0,1,2,4.22Zm1.42,0a.33.33,0,1,1,.32-.33A.32.32,0,0,1,3.44,4.22Z"/><path class="cls-2" d="M13.21,1.79A3.12,3.12,0,0,0,10.1,4.91a3.31,3.31,0,0,0,.35,1.46v0s0,.07.08.1l-.09.42-.2,1.15,1-.33.4-.13a.26.26,0,0,0,.09.05l0,0A2.94,2.94,0,0,0,13.21,8a3.12,3.12,0,0,0,0-6.24Zm0,1a.32.32,0,0,1,.32.33.32.32,0,0,1-.32.32.33.33,0,0,1-.34-.32A.34.34,0,0,1,13.17,2.76Zm.72,4.17h-.81a.25.25,0,0,1-.25-.25V4.76l-.22.15a.32.32,0,0,1-.43-.09.31.31,0,0,1,.08-.43L12.88,4,13,3.91a.31.31,0,0,1,.13,0,.33.33,0,0,1,.33.33V6.3h.44a.32.32,0,0,1,0,.63Z"/><path class="cls-1" d="M6.16,11.27H2.45a.39.39,0,0,0-.39.39v1.67a.38.38,0,0,0,.39.39H6.16a.39.39,0,0,0,.39-.39V11.66A.4.4,0,0,0,6.16,11.27ZM5.93,13.1H2.68V11.89H5.93Z"/><path class="cls-1" d="M11.07,11.41H7.63a.31.31,0,0,0,0,.62h3.44a.31.31,0,1,0,0-.62Z"/><path class="cls-1" d="M11.07,12.94H7.63a.31.31,0,0,0,0,.62h3.44a.31.31,0,0,0,0-.62Z"/><path class="cls-1" d="M2.35,3.89a.33.33,0,1,1-.65,0,.33.33,0,0,1,.65,0Z"/><path class="cls-1" d="M3.76,3.89a.32.32,0,1,1-.32-.32A.32.32,0,0,1,3.76,3.89Z"/></svg>