<?xml version="1.0" encoding="utf-8"?>
<!-- Generator: Adobe Illustrator 27.3.1, SVG Export Plug-In . SVG Version: 6.00 Build 0)  -->
<svg version="1.1" id="Layer_1" xmlns="http://www.w3.org/2000/svg" xmlns:xlink="http://www.w3.org/1999/xlink" x="0px" y="0px"
	 viewBox="0 0 70 70" style="enable-background:new 0 0 70 70;" xml:space="preserve">
<style type="text/css">
	.st0{fill:#D8D8D8;}
</style>
<path class="st0" d="M63.9,2H6.1C2.7,2,0,4.8,0,8.1v42c0,3.2,2.5,5.8,5.6,6c0.1,0,0.3,0,0.4,0h57.9c3.3,0,6.1-2.7,6.1-6.1v-42
	C70,4.8,67.3,2,63.9,2z M56.9,43.4H13.1c-1.7,0-3-1.3-3-3s1.3-3,3-3h43.8c1.7,0,3,1.3,3,3S58.6,43.4,56.9,43.4z M56.9,31.6H13.1
	c-1.7,0-3-1.3-3-3s1.3-3,3-3h43.8c1.7,0,3,1.3,3,3S58.6,31.6,56.9,31.6z M56.9,19.8H13.1c-1.7,0-3-1.4-3-3s1.3-3,3-3h43.8
	c1.7,0,3,1.3,3,3S58.6,19.8,56.9,19.8z"/>
<path class="st0" d="M5.6,53.5v13.7c0,2.2,2.8,3.2,4.1,1.4l11.4-14.2C21.2,54.4,5.6,53.5,5.6,53.5z"/>
</svg>
