<?xml version="1.0" encoding="UTF-8"?>
<svg id="Layer_1" data-name="Layer 1" xmlns="http://www.w3.org/2000/svg" viewBox="0 0 70 70">
  <defs>
    <style>
      .cls-1 {
        fill: #d8d8d8;
      }
    </style>
  </defs>
  <path class="cls-1" d="m31.54,6.44v7.78h-11.45c-6.37,0-11.52,5.15-11.52,11.5v25.1h-2.35C2.78,50.82,0,48.04,0,44.6V6.44C0,3,2.78.22,6.22.22h19.1c3.42,0,6.22,2.78,6.22,6.22Z"/>
  <path class="cls-1" d="m47.66,19.18h-27.58c-3.64,0-6.57,2.92-6.57,6.54v37.51c0,3.62,2.92,6.54,6.57,6.54h11.94v-13.23c0-1.02.84-1.86,1.86-1.86s1.86.84,1.86,1.86v13.23h11.92c3.62,0,6.57-2.92,6.57-6.54V25.72c0-3.62-2.95-6.54-6.57-6.54Zm-5.92,25.52h-15.71c-1.02,0-1.86-.82-1.86-1.86s.84-1.86,1.86-1.86h15.71c1.02,0,1.86.84,1.86,1.86s-.84,1.86-1.86,1.86Zm0-9.17h-15.71c-1.02,0-1.86-.84-1.86-1.86s.84-1.86,1.86-1.86h15.71c1.02,0,1.86.82,1.86,1.86s-.84,1.86-1.86,1.86Z"/>
  <path class="cls-1" d="m47.66,19.18h-27.58c-3.64,0-6.57,2.92-6.57,6.54v37.51c0,3.62,2.92,6.54,6.57,6.54h11.94v-13.23c0-1.02.84-1.86,1.86-1.86s1.86.84,1.86,1.86v13.23h11.92c3.62,0,6.57-2.92,6.57-6.54V25.72c0-3.62-2.95-6.54-6.57-6.54Zm-5.92,25.52h-15.71c-1.02,0-1.86-.82-1.86-1.86s.84-1.86,1.86-1.86h15.71c1.02,0,1.86.84,1.86,1.86s-.84,1.86-1.86,1.86Zm0-9.17h-15.71c-1.02,0-1.86-.84-1.86-1.86s.84-1.86,1.86-1.86h15.71c1.02,0,1.86.82,1.86,1.86s-.84,1.86-1.86,1.86Z"/>
  <path class="cls-1" d="m70,6.44v38.16c0,3.44-2.78,6.22-6.22,6.22h-4.58v-25.1c0-6.34-5.18-11.5-11.52-11.5h-9.19v-7.78c0-3.44,2.78-6.22,6.22-6.22h19.08c3.44,0,6.22,2.78,6.22,6.22Z"/>
</svg>