<?xml version="1.0" encoding="utf-8"?>
<!-- Generator: Adobe Illustrator 27.3.1, SVG Export Plug-In . SVG Version: 6.00 Build 0)  -->
<svg version="1.1" id="Layer_1" xmlns="http://www.w3.org/2000/svg" xmlns:xlink="http://www.w3.org/1999/xlink" x="0px" y="0px"
	 viewBox="0 0 70 70" style="enable-background:new 0 0 70 70;" xml:space="preserve">
<style type="text/css">
	.st0{fill:#D8D8D8;}
</style>
<path class="st0" d="M61.9,0H8.1C3.6,0,0,3.6,0,8.1v53.8C0,66.4,3.6,70,8.1,70h53.8c4.5,0,8.1-3.6,8.1-8.1V8.1C70,3.6,66.4,0,61.9,0
	z M56.9,54.8H43.7c-1,1.9-3.1,3.2-5.4,3.2s-4.4-1.3-5.4-3.2H13.1c-1.7,0-3-1.3-3-3s1.3-3,3-3h19.7c1-1.9,3.1-3.2,5.4-3.2
	s4.4,1.3,5.4,3.2h13.2c1.7,0,3,1.3,3,3S58.6,54.8,56.9,54.8z M56.9,38H28.6c-1,1.9-3.1,3.2-5.4,3.2s-4.4-1.3-5.4-3.2h-4.7
	c-1.7,0-3-1.3-3-3s1.3-3,3-3h4.7c1.1-1.9,3.1-3.2,5.4-3.2s4.4,1.3,5.4,3.2h28.3c1.7,0,3,1.3,3,3S58.6,38,56.9,38z M56.9,21.2h-5.1
	c-1,1.9-3.1,3.2-5.4,3.2s-4.4-1.3-5.4-3.2H13.1c-1.7,0-3-1.4-3-3s1.3-3,3-3H41c1-1.9,3.1-3.2,5.4-3.2s4.4,1.3,5.4,3.2h5.1
	c1.7,0,3,1.3,3,3S58.6,21.2,56.9,21.2z"/>
</svg>
